<svg width="152" height="153" viewBox="0 0 152 153" fill="none" xmlns="http://www.w3.org/2000/svg">
<path d="M133 119.531C142.951 119.531 149.625 112.814 149.625 102.797C149.625 92.7825 142.951 81.2812 133 81.2812C133 56.2395 110.378 38.25 85.5 38.25C63.4814 38.25 44.2985 53.0982 40.375 74.1094C40.375 74.1094 37.4466 74.1094 35.625 74.1094C23.1848 74.1094 14.25 85.4935 14.25 98.0156C14.25 110.538 23.1848 119.531 35.625 119.531H133Z" stroke="#010101" stroke-width="4" stroke-miterlimit="10"/>
<path d="M71.2476 40.0478C66.0084 35.9263 59.4154 33.4688 52.25 33.4688C35.1975 33.4688 21.375 47.3822 21.375 64.5469C21.375 70.7075 23.0541 74.0592 26.125 78.8906" stroke="#010101" stroke-width="4" stroke-miterlimit="10"/>
<path d="M14.25 64.5469H0" stroke="#010101" stroke-width="4" stroke-miterlimit="10"/>
<path d="M52.25 26.2969V11.9531" stroke="#010101" stroke-width="4" stroke-miterlimit="10"/>
<path d="M23.75 35.8594L9.5 21.5156" stroke="#010101" stroke-width="4" stroke-miterlimit="10"/>
</svg>
