<svg width="154" height="153" viewBox="0 0 154 153" fill="none" xmlns="http://www.w3.org/2000/svg">
<path d="M134.75 119.531C144.832 119.531 151.594 112.814 151.594 102.797C151.594 92.7825 144.832 81.2812 134.75 81.2812C134.75 56.2395 111.83 38.25 86.625 38.25C64.3167 38.25 44.8814 53.0982 40.9062 74.1094C40.9062 74.1094 37.9418 74.1094 36.0938 74.1094C23.4898 74.1094 14.4375 85.4935 14.4375 98.0156C14.4375 110.538 23.4898 119.531 36.0938 119.531H134.75Z" stroke="#010101" stroke-width="4" stroke-miterlimit="10"/>
<path d="M16.8534 90.7457C13.0274 88.3145 9.77178 85.08 7.32222 81.2789C4.21094 76.4498 2.40625 70.7075 2.40625 64.5469C2.40625 47.3822 16.4106 33.4688 33.6875 33.4688C44.7659 33.4688 54.4919 39.1871 60.0528 47.8149" stroke="#010101" stroke-width="4" stroke-miterlimit="10"/>
</svg>
