<svg width="153" height="153" viewBox="0 0 153 153" fill="none" xmlns="http://www.w3.org/2000/svg">
<path d="M131.484 95.625C142.398 95.625 150.609 87.4132 150.609 76.5C150.609 65.5868 142.398 54.9844 131.484 54.9844C131.484 27.6978 108.568 7.17188 81.2812 7.17188C57.1312 7.17188 35.3812 22.5269 31.0781 45.4219C31.0781 45.4219 28.293 45.4219 26.2969 45.4219C12.6512 45.4219 2.39062 58.0731 2.39062 71.7188C2.39062 85.3644 12.6512 95.625 26.2969 95.625H131.484Z" stroke="#010101" stroke-width="4" stroke-miterlimit="10"/>
<path d="M54.9844 109.969L35.8594 143.438" stroke="#010101" stroke-width="4" stroke-miterlimit="10"/>
<path d="M31.0781 109.969L11.9531 143.438" stroke="#010101" stroke-width="4" stroke-miterlimit="10"/>
<path d="M78.8906 109.969L59.7656 143.438" stroke="#010101" stroke-width="4" stroke-miterlimit="10"/>
<path d="M102.797 109.969L83.6719 143.438" stroke="#010101" stroke-width="4" stroke-miterlimit="10"/>
<path d="M126.703 109.969L107.578 143.438" stroke="#010101" stroke-width="4" stroke-miterlimit="10"/>
</svg>
