<svg width="154" height="154" viewBox="0 0 154 154" fill="none" xmlns="http://www.w3.org/2000/svg">
<path d="M134.75 108.281C144.832 108.281 151.594 101.52 151.594 91.4375C151.594 81.3577 144.832 69.7812 134.75 69.7812C134.75 44.5758 111.83 26.4688 86.625 26.4688C64.3167 26.4688 44.8814 41.414 40.9062 62.5625C40.9062 62.5625 37.9418 62.5625 36.0938 62.5625C23.4898 62.5625 14.4375 74.0211 14.4375 86.625C14.4375 99.2289 23.4898 108.281 36.0938 108.281H134.75Z" stroke="#010101" stroke-width="4" stroke-miterlimit="10"/>
<path d="M72.1851 28.2782C66.8769 24.1299 60.1972 21.6562 52.9375 21.6562C35.6606 21.6562 21.6562 35.6606 21.6562 52.9375C21.6562 59.1384 23.3575 62.512 26.4687 67.375" stroke="#010101" stroke-width="4" stroke-miterlimit="10"/>
<path d="M14.4375 52.9375H0" stroke="#010101" stroke-width="4" stroke-miterlimit="10"/>
<path d="M52.9375 14.4375V0" stroke="#010101" stroke-width="4" stroke-miterlimit="10"/>
<path d="M24.0625 24.0625L9.625 9.625" stroke="#010101" stroke-width="4" stroke-miterlimit="10"/>
<path d="M48.125 115.5L38.5 137.156" stroke="#010101" stroke-width="4" stroke-miterlimit="10"/>
<path d="M72.1875 115.5L62.5625 137.156" stroke="#010101" stroke-width="4" stroke-miterlimit="10"/>
<path d="M96.25 115.5L86.625 137.156" stroke="#010101" stroke-width="4" stroke-miterlimit="10"/>
<path d="M120.312 115.5L110.688 137.156" stroke="#010101" stroke-width="4" stroke-miterlimit="10"/>
<path d="M36.0938 144.375L33.6875 149.188" stroke="#010101" stroke-width="4" stroke-miterlimit="10"/>
<path d="M60.1562 144.375L57.75 149.188" stroke="#010101" stroke-width="4" stroke-miterlimit="10"/>
<path d="M84.2188 144.375L81.8125 149.188" stroke="#010101" stroke-width="4" stroke-miterlimit="10"/>
<path d="M108.281 144.375L105.875 149.188" stroke="#010101" stroke-width="4" stroke-miterlimit="10"/>
</svg>
