<svg width="153" height="154" viewBox="0 0 153 154" fill="none" xmlns="http://www.w3.org/2000/svg">
<path d="M133.875 108.281C143.892 108.281 150.609 101.52 150.609 91.4375C150.609 81.3577 143.892 69.7812 133.875 69.7812C133.875 44.5758 111.104 26.4688 86.0625 26.4688C63.899 26.4688 44.5899 41.414 40.6406 62.5625C40.6406 62.5625 37.6954 62.5625 35.8594 62.5625C23.3373 62.5625 14.3438 74.0211 14.3438 86.625C14.3438 99.2289 23.3373 108.281 35.8594 108.281H133.875Z" stroke="#010101" stroke-width="4" stroke-miterlimit="10"/>
<path d="M16.7439 79.3076C12.9428 76.8604 9.70833 73.6048 7.27467 69.7788C4.18359 64.9182 2.39062 59.1384 2.39062 52.9375C2.39062 35.6606 16.3041 21.6562 33.4688 21.6562C44.4752 21.6562 54.1381 27.412 59.6628 36.0962" stroke="#010101" stroke-width="4" stroke-miterlimit="10"/>
<path d="M47.8125 115.5L38.25 137.156" stroke="#010101" stroke-width="4" stroke-miterlimit="10"/>
<path d="M71.7188 115.5L62.1562 137.156" stroke="#010101" stroke-width="4" stroke-miterlimit="10"/>
<path d="M95.625 115.5L86.0625 137.156" stroke="#010101" stroke-width="4" stroke-miterlimit="10"/>
<path d="M119.531 115.5L109.969 137.156" stroke="#010101" stroke-width="4" stroke-miterlimit="10"/>
<path d="M35.8594 144.375L33.4688 149.188" stroke="#010101" stroke-width="4" stroke-miterlimit="10"/>
<path d="M59.7656 144.375L57.375 149.188" stroke="#010101" stroke-width="4" stroke-miterlimit="10"/>
<path d="M83.6719 144.375L81.2812 149.188" stroke="#010101" stroke-width="4" stroke-miterlimit="10"/>
<path d="M107.578 144.375L105.188 149.188" stroke="#010101" stroke-width="4" stroke-miterlimit="10"/>
</svg>
