<svg width="154" height="153" viewBox="0 0 154 153" fill="none" xmlns="http://www.w3.org/2000/svg">
<path d="M89.0312 54.9844L55.3438 100.406H69.7812L64.9688 131.484L98.6562 86.0625H84.2188L89.0312 54.9844Z" stroke="#010101" stroke-width="4" stroke-miterlimit="10" stroke-linejoin="bevel"/>
<path d="M43.3125 95.625H26.4688C12.7339 95.625 2.40625 85.3644 2.40625 71.7188C2.40625 58.0731 12.7339 45.4219 26.4688 45.4219C28.478 45.4219 31.2812 45.4219 31.2812 45.4219C35.6125 22.5269 57.5046 7.17188 81.8125 7.17188C109.277 7.17188 132.344 27.6978 132.344 54.9844C143.328 54.9844 151.594 65.5868 151.594 76.5C151.594 87.4132 143.328 95.625 132.344 95.625H110.688" stroke="#010101" stroke-width="4" stroke-miterlimit="10"/>
</svg>
