<svg width="153" height="154" viewBox="0 0 153 154" fill="none" xmlns="http://www.w3.org/2000/svg">
<path d="M2.39062 57.75L21.5156 77L2.39062 96.25" stroke="#010101" stroke-width="4" stroke-miterlimit="10"/>
<path d="M150.609 96.25L131.484 77L150.609 57.75" stroke="#010101" stroke-width="4" stroke-miterlimit="10"/>
<path d="M57.375 151.594L76.5 132.344L95.625 151.594" stroke="#010101" stroke-width="4" stroke-miterlimit="10"/>
<path d="M95.625 2.40625L76.5 21.6562L57.375 2.40625" stroke="#010101" stroke-width="4" stroke-miterlimit="10"/>
<path d="M11.9531 117.906H35.8594V141.969" stroke="#010101" stroke-width="4" stroke-miterlimit="10"/>
<path d="M141.047 36.0938H117.141V12.0312" stroke="#010101" stroke-width="4" stroke-miterlimit="10"/>
<path d="M90.8438 62.5625L117.141 36.0938" stroke="#010101" stroke-width="4" stroke-miterlimit="10"/>
<path d="M35.8594 117.906L62.1562 91.4375" stroke="#010101" stroke-width="4" stroke-miterlimit="10"/>
<path d="M35.8594 12.0312V36.0938H11.9531" stroke="#010101" stroke-width="4" stroke-miterlimit="10"/>
<path d="M117.141 141.969V117.906H141.047" stroke="#010101" stroke-width="4" stroke-miterlimit="10"/>
<path d="M90.8438 91.4375L117.141 117.906" stroke="#010101" stroke-width="4" stroke-miterlimit="10"/>
<path d="M35.8594 36.0938L62.1562 62.5625" stroke="#010101" stroke-width="4" stroke-miterlimit="10"/>
<path d="M95.625 77H131.484" stroke="#010101" stroke-width="4" stroke-miterlimit="10"/>
<path d="M21.5156 77H57.375" stroke="#010101" stroke-width="4" stroke-miterlimit="10"/>
<path d="M76.5 96.25V132.344" stroke="#010101" stroke-width="4" stroke-miterlimit="10"/>
<path d="M76.5 21.6562V57.75" stroke="#010101" stroke-width="4" stroke-miterlimit="10"/>
<path d="M76.5 96.25C87.0624 96.25 95.625 87.6315 95.625 77C95.625 66.3685 87.0624 57.75 76.5 57.75C65.9376 57.75 57.375 66.3685 57.375 77C57.375 87.6315 65.9376 96.25 76.5 96.25Z" stroke="#010101" stroke-width="4" stroke-miterlimit="10"/>
</svg>
